{"asset":{"version":"2.0","generator":"Blockbench 4.1.1 glTF exporter"},"scenes":[{"nodes":[8],"name":"blockbench_export"}],"scene":0,"nodes":[{"translation":[-0.4167842472521794,-0.3012296201376302,-0.39262688732339324],"name":"cube","mesh":0},{"translation":[0.41361812499999984,0.356914375,0.37500000000000044],"name":"slide","children":[0]},{"rotation":[-0.19509032201612825,0,0,0.9807852804032304],"translation":[0.015130267035618483,-0.03739734942297246,0.00498252394421983],"name":"cube","mesh":1},{"rotation":[-0.19509032201612825,0,0,0.9807852804032304],"translation":[0.015130267035618483,-0.03739734942297246,0.00498252394421983],"name":"cube","mesh":2},{"translation":[-0.01829638928779803,0.09308210428534225,-0.05385941126761273],"name":"magazine","children":[2,3]},{"translation":[0.503125,0.359375,0.7031249999999998],"name":"glock_17","children":[1,4]},{"name":"cube","mesh":3},{"rotation":[0.049966298603983814,-0.08704604307798426,-0.00437148468619978,0.994940825129777],"translation":[0.6796874999999999,0.3937500000000003,0.6125],"name":"right","children":[6]},{"children":[5,7]}],"bufferViews":[{"buffer":0,"byteOffset":0,"byteLength":288,"target":34962,"byteStride":12},{"buffer":0,"byteOffset":288,"byteLength":288,"target":34962,"byteStride":12},{"buffer":0,"byteOffset":576,"byteLength":192,"target":34962,"byteStride":8},{"buffer":0,"byteOffset":768,"byteLength":72,"target":34963},{"buffer":0,"byteOffset":840,"byteLength":288,"target":34962,"byteStride":12},{"buffer":0,"byteOffset":1128,"byteLength":288,"target":34962,"byteStride":12},{"buffer":0,"byteOffset":1416,"byteLength":192,"target":34962,"byteStride":8},{"buffer":0,"byteOffset":1608,"byteLength":72,"target":34963},{"buffer":0,"byteOffset":1680,"byteLength":288,"target":34962,"byteStride":12},{"buffer":0,"byteOffset":1968,"byteLength":288,"target":34962,"byteStride":12},{"buffer":0,"byteOffset":2256,"byteLength":192,"target":34962,"byteStride":8},{"buffer":0,"byteOffset":2448,"byteLength":72,"target":34963},{"buffer":0,"byteOffset":2520,"byteLength":288,"target":34962,"byteStride":12},{"buffer":0,"byteOffset":2808,"byteLength":288,"target":34962,"byteStride":12},{"buffer":0,"byteOffset":3096,"byteLength":192,"target":34962,"byteStride":8},{"buffer":0,"byteOffset":3288,"byteLength":72,"target":34963},{"buffer":0,"byteOffset":3360,"byteLength":52},{"buffer":0,"byteOffset":3412,"byteLength":208},{"buffer":0,"byteOffset":3620,"byteLength":36},{"buffer":0,"byteOffset":3656,"byteLength":108},{"buffer":0,"byteOffset":3764,"byteLength":52},{"buffer":0,"byteOffset":3816,"byteLength":208},{"buffer":0,"byteOffset":4024,"byteLength":36},{"buffer":0,"byteOffset":4060,"byteLength":108},{"buffer":0,"byteOffset":4168,"byteLength":16},{"buffer":0,"byteOffset":4184,"byteLength":64},{"buffer":0,"byteOffset":4248,"byteLength":24},{"buffer":0,"byteOffset":4272,"byteLength":72},{"buffer":0,"byteOffset":4344,"byteLength":16},{"buffer":0,"byteOffset":4360,"byteLength":48}],"buffers":[{"byteLength":4408,"uri":"data:application/octet-stream;base64,"}],"accessors":[{"bufferView":0,"componentType":5126,"count":24,"max":[0.05472862347960472,0.22556523978710175,0.20512688159942627],"min":[-0.05464637652039528,0.21775273978710175,-0.13862311840057373],"type":"VEC3"},{"bufferView":1,"componentType":5126,"count":24,"max":[1,1,1],"min":[-1,-1,-1],"type":"VEC3"},{"bufferView":2,"componentType":5126,"count":24,"max":[0.34375,1],"min":[0,0.65625],"type":"VEC2"},{"bufferView":3,"componentType":5123,"count":36,"max":[23],"min":[0],"type":"SCALAR"},{"bufferView":4,"componentType":5126,"count":24,"max":[0.06254111975431442,0.07102730125188828,0.004649884533137083],"min":[-0.06245887652039528,-0.41725394129753113,-0.05394386500120163],"type":"VEC3"},{"bufferView":5,"componentType":5126,"count":24,"max":[1,1,1],"min":[-1,-1,-1],"type":"VEC3"},{"bufferView":6,"componentType":5126,"count":24,"max":[0.125,1],"min":[0,0.51171875],"type":"VEC2"},{"bufferView":7,"componentType":5123,"count":36,"max":[23],"min":[0],"type":"SCALAR"},{"bufferView":8,"componentType":5126,"count":24,"max":[0.06254111975431442,0.07102730125188828,0.06714988499879837],"min":[-0.06245887652039528,-0.44069144129753113,0.004649884533137083],"type":"VEC3"},{"bufferView":9,"componentType":5126,"count":24,"max":[1,1,1],"min":[-1,-1,-1],"type":"VEC3"},{"bufferView":10,"componentType":5126,"count":24,"max":[0.125,1],"min":[0,0.48828125],"type":"VEC2"},{"bufferView":11,"componentType":5123,"count":36,"max":[23],"min":[0],"type":"SCALAR"},{"bufferView":12,"componentType":5126,"count":24,"max":[0.1875,0.0625,0.9375],"min":[-0.0625,-0.1875,-0.0625],"type":"VEC3"},{"bufferView":13,"componentType":5126,"count":24,"max":[1,1,1],"min":[-1,-1,-1],"type":"VEC3"},{"bufferView":14,"componentType":5126,"count":24,"max":[0.8125,0.75],"min":[0.625,0.5],"type":"VEC2"},{"bufferView":15,"componentType":5123,"count":36,"max":[23],"min":[0],"type":"SCALAR"},{"bufferView":16,"componentType":5126,"count":13,"max":[2.25],"min":[0],"type":"SCALAR"},{"bufferView":17,"componentType":5126,"count":13,"max":[0.36013609170913696,0.010010919533669949,-0.008843022398650646,0.9986632466316223],"min":[0.050926875323057175,-0.048874083906412125,-0.5620126128196716,0.7430041432380676],"type":"VEC4"},{"bufferView":18,"componentType":5126,"count":9,"max":[2.25],"min":[0],"type":"SCALAR"},{"bufferView":19,"componentType":5126,"count":9,"max":[0.46406251192092896,0.5768749713897705,0.596875011920929],"min":[0.4296875,0.44062501192092896,0.596875011920929],"type":"VEC3"},{"bufferView":20,"componentType":5126,"count":13,"max":[2.25],"min":[0],"type":"SCALAR"},{"bufferView":21,"componentType":5126,"count":13,"max":[0.33042702078819275,0.11804711073637009,0,1],"min":[0,0,-0.5647822022438049,0.7510263323783875],"type":"VEC4"},{"bufferView":22,"componentType":5126,"count":9,"max":[2.25],"min":[0],"type":"SCALAR"},{"bufferView":23,"componentType":5126,"count":9,"max":[0.503125011920929,0.49562498927116394,0.703125],"min":[0.503125011920929,0.359375,0.703125],"type":"VEC3"},{"bufferView":24,"componentType":5126,"count":4,"max":[1.25],"min":[0.3333333432674408],"type":"SCALAR"},{"bufferView":25,"componentType":5126,"count":4,"max":[0.30070579051971436,0,0,1],"min":[0,0,0,0.9537169337272644],"type":"VEC4"},{"bufferView":26,"componentType":5126,"count":6,"max":[1.25],"min":[0.3333333432674408],"type":"SCALAR"},{"bufferView":27,"componentType":5126,"count":6,"max":[-0.018296388909220695,0.09308210760354996,0.2273905873298645],"min":[-0.018296388909220695,-1.531917929649353,-0.0538594126701355],"type":"VEC3"},{"bufferView":28,"componentType":5126,"count":4,"max":[1.8333333730697632],"min":[0.375],"type":"SCALAR"},{"bufferView":29,"componentType":5126,"count":4,"max":[0.4136181175708771,0.35691437125205994,0.625],"min":[0.4136181175708771,0.35691437125205994,0.375],"type":"VEC3"}],"materials":[{"pbrMetallicRoughness":{"metallicFactor":0,"roughnessFactor":1},"alphaMode":"MASK","alphaCutoff":0.05,"doubleSided":true},{"pbrMetallicRoughness":{"metallicFactor":0,"roughnessFactor":1},"alphaMode":"MASK","alphaCutoff":0.05,"doubleSided":true},{"pbrMetallicRoughness":{"metallicFactor":0,"roughnessFactor":1},"alphaMode":"MASK","alphaCutoff":0.05,"doubleSided":true},{"pbrMetallicRoughness":{"metallicFactor":0,"roughnessFactor":1},"alphaMode":"MASK","alphaCutoff":0.05,"doubleSided":true}],"meshes":[{"primitives":[{"mode":4,"attributes":{"POSITION":0,"NORMAL":1,"TEXCOORD_0":2},"indices":3,"material":0}]},{"primitives":[{"mode":4,"attributes":{"POSITION":4,"NORMAL":5,"TEXCOORD_0":6},"indices":7,"material":1}]},{"primitives":[{"mode":4,"attributes":{"POSITION":8,"NORMAL":9,"TEXCOORD_0":10},"indices":11,"material":2}]},{"primitives":[{"mode":4,"attributes":{"POSITION":12,"NORMAL":13,"TEXCOORD_0":14},"indices":15,"material":3}]}],"animations":[{"name":"reload2","samplers":[{"input":16,"output":17,"interpolation":"LINEAR"},{"input":18,"output":19,"interpolation":"LINEAR"},{"input":20,"output":21,"interpolation":"LINEAR"},{"input":22,"output":23,"interpolation":"LINEAR"},{"input":24,"output":25,"interpolation":"LINEAR"},{"input":26,"output":27,"interpolation":"LINEAR"},{"input":28,"output":29,"interpolation":"LINEAR"}],"channels":[{"sampler":0,"target":{"node":7,"path":"rotation"}},{"sampler":1,"target":{"node":7,"path":"translation"}},{"sampler":2,"target":{"node":5,"path":"rotation"}},{"sampler":3,"target":{"node":5,"path":"translation"}},{"sampler":4,"target":{"node":4,"path":"rotation"}},{"sampler":5,"target":{"node":4,"path":"translation"}},{"sampler":6,"target":{"node":1,"path":"translation"}}]}]}